<svg id="Layer_1" data-name="Layer 1" xmlns="http://www.w3.org/2000/svg" viewBox="0 0 496.34 417.86"><defs><style>.cls-1{fill:#1d1d1b;}</style></defs><path class="cls-1" d="M327.76,239.13c0,8.57-.09,17.15,0,25.73.09,5.45-2,8.06-7.81,7.9-10-.29-19.94,0-29.9-.12-16.45-.19-27.28-10.75-27.95-27.29-.23-5.56,0-11.13,0-16.69,0-3.27.25-6.75-3.61-8.22-4.05-1.54-5.82,1.68-7.81,4.16-11.44,14.27-23,28.46-34.19,42.94-3.05,3.95-6.33,5.38-11.17,5.24-9.73-.29-19.47-.19-29.2,0-5.28.09-7.67-2.11-7.6-7.43.13-10,.17-19.94,0-29.91-.06-3.6,1.64-6.16,3.68-8.7q31-38.83,62-77.68a9.58,9.58,0,0,1,8.31-4c10.2.13,20.4.16,30.6,0,6-.1,8.21,2.5,8.09,8.43-.26,13.21-.12,26.42-.06,39.64,0,8.82,2.73,11.45,11.68,11.52s17.62.19,26.42,0c6.27-.16,8.81,2.55,8.63,8.76C327.57,222,327.76,230.55,327.76,239.13Z"/></svg>